<svg xmlns="http://www.w3.org/2000/svg" viewBox="0 0 24 24" id="fashion"><path fill="#232323" d="M18,20.75H6A.75.75,0,0,1,5.25,20V12.122l-1.383.571a.751.751,0,0,1-.985-.418l-1.58-4a.748.748,0,0,1,.312-.918l5-3a.75.75,0,1,1,.772,1.286L2.931,8.316,4,11.016l1.715-.709A.749.749,0,0,1,6.75,11v8.25h10.5V11a.749.749,0,0,1,1.036-.693L20,11.016l1.066-2.7L16.792,5.75H15.675A3.75,3.75,0,0,1,8.25,5a.75.75,0,0,1,1.5,0,2.25,2.25,0,0,0,4.5,0A.75.75,0,0,1,15,4.25h2a.748.748,0,0,1,.386.107l5,3a.749.749,0,0,1,.311.918l-1.58,4a.749.749,0,0,1-.983.418l-1.384-.571V20A.75.75,0,0,1,18,20.75Z"></path></svg>