<?xml version="1.0" standalone="no"?>
<!DOCTYPE svg PUBLIC "-//W3C//DTD SVG 20010904//EN"
 "http://www.w3.org/TR/2001/REC-SVG-20010904/DTD/svg10.dtd">
<svg version="1.0" xmlns="http://www.w3.org/2000/svg"
 width="512.000000pt" height="512.000000pt" viewBox="0 0 512.000000 512.000000"
 preserveAspectRatio="xMidYMid meet">

<g transform="translate(0.000000,512.000000) scale(0.100000,-0.100000)"
fill="#000000" stroke="none">
<path d="M1365 3428 c-75 -26 -139 -98 -158 -177 l-12 -51 -94 0 c-125 0 -165
-13 -226 -75 -62 -61 -75 -101 -75 -229 0 -82 -2 -96 -16 -96 -108 0 -224
-125 -224 -240 0 -115 116 -240 224 -240 14 0 16 -14 16 -96 0 -128 13 -168
75 -229 61 -62 101 -75 229 -75 82 0 96 -2 96 -16 0 -77 88 -189 166 -212 53
-16 255 -16 308 0 55 16 138 99 154 154 8 27 12 117 12 258 l0 216 720 0 720
0 0 -216 c0 -141 4 -231 12 -258 16 -55 99 -138 154 -154 53 -16 255 -16 308
0 78 23 166 135 166 212 0 14 14 16 96 16 128 0 168 13 229 75 62 61 75 101
75 229 0 82 2 96 16 96 108 0 224 125 224 240 0 115 -116 240 -224 240 -14 0
-16 14 -16 96 0 128 -13 168 -75 229 -61 62 -101 75 -229 75 -82 0 -96 2 -96
16 0 77 -88 189 -166 212 -53 16 -255 16 -308 0 -55 -16 -138 -99 -154 -154
-8 -27 -12 -117 -12 -258 l0 -216 -720 0 -720 0 0 216 c0 141 -4 231 -12 258
-16 55 -99 138 -154 154 -50 15 -267 15 -309 0z m290 -173 l25 -24 0 -671 0
-671 -25 -24 c-23 -24 -31 -25 -135 -25 -104 0 -112 1 -135 25 l-25 24 0 671
0 671 25 24 c23 24 31 25 135 25 104 0 112 -1 135 -25z m2080 0 l25 -24 0
-671 0 -671 -25 -24 c-23 -24 -31 -25 -135 -25 -104 0 -112 1 -135 25 l-25 24
0 671 0 671 25 24 c23 24 31 25 135 25 104 0 112 -1 135 -25z m-2535 -695 l0
-480 -95 0 c-88 0 -98 2 -120 25 l-25 24 0 431 0 431 25 24 c22 23 32 25 120
25 l95 0 0 -480z m2935 455 l25 -24 0 -431 0 -431 -25 -24 c-22 -23 -32 -25
-120 -25 l-95 0 0 480 0 480 95 0 c88 0 98 -2 120 -25z m-3335 -455 c0 -65 -3
-80 -15 -80 -27 0 -65 47 -65 80 0 33 38 80 65 80 12 0 15 -15 15 -80z m2480
0 l0 -80 -720 0 -720 0 0 80 0 80 720 0 720 0 0 -80z m1095 55 c16 -15 25 -36
25 -55 0 -33 -38 -80 -65 -80 -12 0 -15 15 -15 80 0 90 11 100 55 55z"/>
</g>
</svg>
