<?xml version="1.0" standalone="no"?>
<!DOCTYPE svg PUBLIC "-//W3C//DTD SVG 20010904//EN"
 "http://www.w3.org/TR/2001/REC-SVG-20010904/DTD/svg10.dtd">
<svg version="1.0" xmlns="http://www.w3.org/2000/svg"
 width="512.000000pt" height="512.000000pt" viewBox="0 0 512.000000 512.000000"
 preserveAspectRatio="xMidYMid meet">

<g transform="translate(0.000000,512.000000) scale(0.100000,-0.100000)"
fill="#000000" stroke="none">
<path d="M2320 4949 c-329 -33 -696 -153 -971 -318 -641 -383 -1051 -991
-1166 -1731 -24 -161 -24 -519 0 -680 83 -532 310 -984 681 -1356 346 -346
781 -575 1261 -664 761 -140 1535 93 2104 634 147 140 339 393 444 587 107
197 192 432 237 659 160 796 -83 1604 -655 2175 -367 368 -823 597 -1352 680
-121 19 -454 27 -583 14z m462 -483 c213 -27 407 -82 593 -171 111 -52 264
-143 320 -189 l30 -25 -1340 -1340 c-737 -738 -1343 -1341 -1347 -1341 -4 0
-32 35 -63 78 -73 102 -196 351 -239 483 -154 474 -121 982 94 1428 195 404
498 706 902 901 327 158 696 219 1050 176z m1363 -823 c73 -103 196 -352 239
-484 204 -627 78 -1299 -340 -1816 -548 -676 -1509 -893 -2299 -519 -111 53
-265 144 -320 190 l-30 25 640 640 640 641 302 0 303 0 0 240 0 240 -62 0 -63
0 460 460 c253 253 463 460 467 460 4 0 32 -35 63 -77z"/>
<path d="M1785 3975 l-25 -24 0 -271 0 -271 -25 -24 -24 -25 -232 0 c-153 0
-246 -4 -273 -12 -55 -16 -138 -99 -154 -154 -7 -23 -12 -74 -12 -113 0 -63 3
-75 25 -96 32 -33 78 -33 110 0 22 21 25 33 25 95 0 62 3 74 25 95 l24 25 232
0 c153 0 246 4 273 12 55 16 138 99 154 154 8 28 12 129 12 313 l0 272 -25 24
c-15 16 -36 25 -55 25 -19 0 -40 -9 -55 -25z"/>
<path d="M2025 3815 l-25 -24 0 -232 c0 -153 -4 -246 -12 -273 -16 -55 -99
-138 -154 -154 -27 -8 -120 -12 -273 -12 l-232 0 -24 -25 c-33 -32 -33 -78 0
-111 l26 -25 262 3 262 3 67 32 c93 44 151 100 196 191 l37 76 3 263 3 262
-25 26 c-33 33 -79 33 -111 0z"/>
<path d="M1135 2786 c-41 -18 -83 -69 -91 -110 -3 -19 -4 -84 -2 -144 3 -120
12 -142 72 -186 26 -20 42 -21 329 -24 l301 -3 233 233 c128 128 233 236 233
240 0 5 -235 8 -522 8 -412 -1 -529 -4 -553 -14z m225 -226 l0 -80 -80 0 -80
0 0 80 0 80 80 0 80 0 0 -80z"/>
<path d="M3440 2560 l0 -241 269 3 c254 3 271 4 297 24 64 47 69 63 69 214 0
151 -5 167 -69 214 -26 20 -43 21 -297 24 l-269 3 0 -241z"/>
</g>
</svg>
