<?xml version="1.0" standalone="no"?>
<!DOCTYPE svg PUBLIC "-//W3C//DTD SVG 20010904//EN"
 "http://www.w3.org/TR/2001/REC-SVG-20010904/DTD/svg10.dtd">
<svg version="1.0" xmlns="http://www.w3.org/2000/svg"
 width="512.000000pt" height="512.000000pt" viewBox="0 0 512.000000 512.000000"
 preserveAspectRatio="xMidYMid meet">

<g transform="translate(0.000000,512.000000) scale(0.100000,-0.100000)"
fill="#000000" stroke="none">
<path d="M2323 4508 l-193 -110 27 -49 c14 -27 29 -49 32 -49 3 0 53 27 111
60 57 32 105 58 106 57 1 -1 -16 -93 -39 -204 l-42 -202 25 -46 c13 -25 28
-45 32 -45 8 0 398 217 410 229 9 8 -50 113 -60 108 -4 -3 -59 -34 -123 -71
-113 -64 -136 -75 -125 -58 3 5 23 98 46 206 l40 198 -26 44 c-14 24 -27 44
-27 43 -1 -1 -89 -51 -194 -111z"/>
<path d="M1765 3867 c-146 -82 -137 -75 -125 -95 26 -46 25 -46 90 -8 34 20
65 35 67 32 3 -3 -6 -60 -20 -126 -25 -115 -25 -124 -10 -149 10 -14 18 -27
18 -29 2 -2 197 106 242 134 21 13 22 15 5 44 -9 16 -20 30 -24 30 -3 0 -39
-18 -78 -41 -40 -22 -73 -39 -75 -37 -1 2 9 58 23 126 23 110 24 126 11 152
l-14 29 -110 -62z"/>
<path d="M1045 3239 c-106 -18 -216 -77 -281 -153 -19 -22 -52 -75 -72 -115
-36 -74 -37 -77 -37 -195 0 -119 1 -122 37 -199 69 -144 198 -242 351 -268
267 -45 522 153 544 423 21 245 -155 470 -397 508 -72 11 -75 11 -145 -1z"/>
<path d="M100 3133 c-19 -10 -40 -29 -47 -43 -10 -20 -13 -293 -13 -1263 0
-1369 -5 -1278 65 -1311 30 -14 59 -17 162 -14 l125 3 29 33 29 32 0 200 0
200 2105 0 2105 0 0 -190 c0 -215 5 -236 65 -264 30 -14 59 -17 162 -14 l125
3 29 33 29 32 0 906 c0 993 3 946 -60 979 -20 11 -60 15 -135 15 -118 0 -159
-12 -193 -55 -22 -28 -22 -29 -22 -561 l0 -534 -2105 0 -2105 0 0 880 0 880
-29 32 -29 33 -129 3 c-107 2 -134 0 -163 -15z"/>
<path d="M2495 2939 c-231 -7 -664 -33 -752 -45 l-43 -6 0 -259 0 -259 1390 0
1390 0 0 53 c-1 233 -332 409 -905 481 -268 34 -670 47 -1080 35z"/>
<path d="M708 2184 c-55 -29 -58 -48 -58 -349 0 -179 4 -283 11 -297 27 -50
-56 -48 1909 -48 1976 0 1872 -3 1900 49 6 12 10 126 10 296 0 227 -3 281 -15
305 -33 64 107 60 -1902 60 -1597 -1 -1831 -3 -1855 -16z"/>
</g>
</svg>
